<mxfile host="Electron" modified="2024-02-01T09:59:24.979Z" agent="Mozilla/5.0 (Macintosh; Intel Mac OS X 10_15_7) AppleWebKit/537.36 (KHTML, like Gecko) draw.io/22.1.16 Chrome/120.0.6099.109 Electron/28.1.0 Safari/537.36" etag="rVQL9WEELLp3g0bJeSLd" version="22.1.16" type="device">
  <diagram name="Page-1" id="v_pH-upielrP5TEvdxz5">
    <mxGraphModel dx="720" dy="1118" grid="1" gridSize="10" guides="1" tooltips="1" connect="1" arrows="1" fold="1" page="1" pageScale="1" pageWidth="827" pageHeight="1169" math="0" shadow="0">
      <root>
        <mxCell id="0" />
        <mxCell id="1" parent="0" />
        <mxCell id="LuUeZSiwlCKiO2b5Vnxp-4" value="Start" style="strokeWidth=2;html=1;shape=mxgraph.flowchart.terminator;whiteSpace=wrap;" vertex="1" parent="1">
          <mxGeometry x="155" y="100" width="100" height="60" as="geometry" />
        </mxCell>
        <mxCell id="LuUeZSiwlCKiO2b5Vnxp-5" value="Slutt" style="strokeWidth=2;html=1;shape=mxgraph.flowchart.terminator;whiteSpace=wrap;" vertex="1" parent="1">
          <mxGeometry x="155" y="680" width="100" height="60" as="geometry" />
        </mxCell>
        <mxCell id="LuUeZSiwlCKiO2b5Vnxp-6" value="hent inn alder&amp;nbsp;" style="shape=parallelogram;html=1;strokeWidth=2;perimeter=parallelogramPerimeter;whiteSpace=wrap;rounded=1;arcSize=0;size=0.23;" vertex="1" parent="1">
          <mxGeometry x="145" y="220" width="110" height="60" as="geometry" />
        </mxCell>
        <mxCell id="LuUeZSiwlCKiO2b5Vnxp-7" value="" style="endArrow=classic;html=1;rounded=0;" edge="1" parent="1">
          <mxGeometry width="50" height="50" relative="1" as="geometry">
            <mxPoint x="204.5" y="160" as="sourcePoint" />
            <mxPoint x="204.5" y="220" as="targetPoint" />
          </mxGeometry>
        </mxCell>
        <mxCell id="LuUeZSiwlCKiO2b5Vnxp-10" value="&amp;gt;=15" style="strokeWidth=2;html=1;shape=mxgraph.flowchart.decision;whiteSpace=wrap;" vertex="1" parent="1">
          <mxGeometry x="125" y="320" width="150" height="80" as="geometry" />
        </mxCell>
        <mxCell id="LuUeZSiwlCKiO2b5Vnxp-12" style="edgeStyle=orthogonalEdgeStyle;rounded=0;orthogonalLoop=1;jettySize=auto;html=1;exitX=0.5;exitY=1;exitDx=0;exitDy=0;entryX=0.5;entryY=0;entryDx=0;entryDy=0;entryPerimeter=0;" edge="1" parent="1" source="LuUeZSiwlCKiO2b5Vnxp-6" target="LuUeZSiwlCKiO2b5Vnxp-10">
          <mxGeometry relative="1" as="geometry" />
        </mxCell>
        <mxCell id="LuUeZSiwlCKiO2b5Vnxp-18" style="edgeStyle=orthogonalEdgeStyle;rounded=0;orthogonalLoop=1;jettySize=auto;html=1;" edge="1" parent="1" source="LuUeZSiwlCKiO2b5Vnxp-13" target="LuUeZSiwlCKiO2b5Vnxp-16">
          <mxGeometry relative="1" as="geometry" />
        </mxCell>
        <mxCell id="LuUeZSiwlCKiO2b5Vnxp-13" value="barnebilett = 30 kr&amp;nbsp;" style="rounded=1;whiteSpace=wrap;html=1;absoluteArcSize=1;arcSize=14;strokeWidth=2;" vertex="1" parent="1">
          <mxGeometry x="125" y="440" width="160" height="60" as="geometry" />
        </mxCell>
        <mxCell id="LuUeZSiwlCKiO2b5Vnxp-16" value="Vis penger bilett&amp;nbsp;" style="shape=parallelogram;html=1;strokeWidth=2;perimeter=parallelogramPerimeter;whiteSpace=wrap;rounded=1;arcSize=12;size=0.23;" vertex="1" parent="1">
          <mxGeometry x="120" y="555" width="165" height="60" as="geometry" />
        </mxCell>
        <mxCell id="LuUeZSiwlCKiO2b5Vnxp-17" style="edgeStyle=orthogonalEdgeStyle;rounded=0;orthogonalLoop=1;jettySize=auto;html=1;entryX=0.45;entryY=0.008;entryDx=0;entryDy=0;entryPerimeter=0;" edge="1" parent="1" source="LuUeZSiwlCKiO2b5Vnxp-10" target="LuUeZSiwlCKiO2b5Vnxp-13">
          <mxGeometry relative="1" as="geometry" />
        </mxCell>
        <mxCell id="LuUeZSiwlCKiO2b5Vnxp-19" style="edgeStyle=orthogonalEdgeStyle;rounded=0;orthogonalLoop=1;jettySize=auto;html=1;entryX=0.5;entryY=0;entryDx=0;entryDy=0;entryPerimeter=0;" edge="1" parent="1" source="LuUeZSiwlCKiO2b5Vnxp-16" target="LuUeZSiwlCKiO2b5Vnxp-5">
          <mxGeometry relative="1" as="geometry" />
        </mxCell>
        <mxCell id="LuUeZSiwlCKiO2b5Vnxp-20" value="" style="endArrow=classic;html=1;rounded=0;" edge="1" parent="1">
          <mxGeometry width="50" height="50" relative="1" as="geometry">
            <mxPoint x="275" y="360" as="sourcePoint" />
            <mxPoint x="335" y="360" as="targetPoint" />
          </mxGeometry>
        </mxCell>
        <mxCell id="LuUeZSiwlCKiO2b5Vnxp-24" value="" style="edgeStyle=orthogonalEdgeStyle;rounded=0;orthogonalLoop=1;jettySize=auto;html=1;" edge="1" parent="1" source="LuUeZSiwlCKiO2b5Vnxp-22" target="LuUeZSiwlCKiO2b5Vnxp-23">
          <mxGeometry relative="1" as="geometry" />
        </mxCell>
        <mxCell id="LuUeZSiwlCKiO2b5Vnxp-27" value="" style="edgeStyle=orthogonalEdgeStyle;rounded=0;orthogonalLoop=1;jettySize=auto;html=1;" edge="1" parent="1" source="LuUeZSiwlCKiO2b5Vnxp-22" target="LuUeZSiwlCKiO2b5Vnxp-26">
          <mxGeometry relative="1" as="geometry" />
        </mxCell>
        <mxCell id="LuUeZSiwlCKiO2b5Vnxp-22" value="16 &amp;lt;= 67" style="strokeWidth=2;html=1;shape=mxgraph.flowchart.decision;whiteSpace=wrap;" vertex="1" parent="1">
          <mxGeometry x="340" y="310" width="160" height="100" as="geometry" />
        </mxCell>
        <mxCell id="LuUeZSiwlCKiO2b5Vnxp-25" style="edgeStyle=orthogonalEdgeStyle;rounded=0;orthogonalLoop=1;jettySize=auto;html=1;entryX=1;entryY=0;entryDx=0;entryDy=0;" edge="1" parent="1" source="LuUeZSiwlCKiO2b5Vnxp-23" target="LuUeZSiwlCKiO2b5Vnxp-16">
          <mxGeometry relative="1" as="geometry" />
        </mxCell>
        <mxCell id="LuUeZSiwlCKiO2b5Vnxp-23" value="bilett = 50 kr" style="rounded=1;whiteSpace=wrap;html=1;strokeWidth=2;" vertex="1" parent="1">
          <mxGeometry x="360" y="440" width="120" height="60" as="geometry" />
        </mxCell>
        <mxCell id="LuUeZSiwlCKiO2b5Vnxp-29" value="" style="edgeStyle=orthogonalEdgeStyle;rounded=0;orthogonalLoop=1;jettySize=auto;html=1;" edge="1" parent="1" source="LuUeZSiwlCKiO2b5Vnxp-26" target="LuUeZSiwlCKiO2b5Vnxp-28">
          <mxGeometry relative="1" as="geometry" />
        </mxCell>
        <mxCell id="LuUeZSiwlCKiO2b5Vnxp-26" value="&amp;lt; 67" style="strokeWidth=2;html=1;shape=mxgraph.flowchart.decision;whiteSpace=wrap;" vertex="1" parent="1">
          <mxGeometry x="580" y="310" width="160" height="100" as="geometry" />
        </mxCell>
        <mxCell id="LuUeZSiwlCKiO2b5Vnxp-30" style="edgeStyle=orthogonalEdgeStyle;rounded=0;orthogonalLoop=1;jettySize=auto;html=1;entryX=1;entryY=0.25;entryDx=0;entryDy=0;" edge="1" parent="1" source="LuUeZSiwlCKiO2b5Vnxp-28" target="LuUeZSiwlCKiO2b5Vnxp-16">
          <mxGeometry relative="1" as="geometry">
            <Array as="points">
              <mxPoint x="660" y="572" />
            </Array>
          </mxGeometry>
        </mxCell>
        <mxCell id="LuUeZSiwlCKiO2b5Vnxp-28" value="pansjonbilett = 35 kr&amp;nbsp;" style="rounded=1;whiteSpace=wrap;html=1;strokeWidth=2;" vertex="1" parent="1">
          <mxGeometry x="600" y="440" width="120" height="60" as="geometry" />
        </mxCell>
      </root>
    </mxGraphModel>
  </diagram>
</mxfile>
